<?xml version="1.0" encoding="UTF-8"?>
<svg width="512pt" height="512pt" version="1.1" viewBox="0 0 512 512" xmlns="http://www.w3.org/2000/svg">
 <defs>
  <clipPath id="a">
   <path d="m94.781 125h322.44v262h-322.44z"/>
  </clipPath>
 </defs>
 <path d="m512 256c0 141.39-114.61 256-256 256s-256-114.61-256-256 114.61-256 256-256 256 114.61 256 256" fill="#f47d4c"/>
 <g clip-path="url(#a)">
  <path d="m288.58 126.89c-1.4648-1.2656-4.043-1.2969-5.4062-0.050781l-50.055 49.723c-1.6133 1.5977-1.7812 3.9922-0.082032 5.5898 4.875 4.5898 9.5664 9.3477 14.039 14.324l2.4102 2.6797-153.59 153.59c-1.4805 1.4805-1.4805 3.8945 0 5.375l26.832 26.832c1.4805 1.4805 3.875 1.4805 5.3555 0l147.39-147.37 2.2461 5.0391c2.2773 5.1055 4.2578 10.363 5.9375 15.703 7.4375 23.672 8.1836 47.777 4.2734 72.164l-0.035156 0.14844c-0.48047 2.4102 1.4297 4.6562 3.8945 4.5234 1.4961-0.066407 2.9961-0.19922 4.4922-0.36719 28.547-3.1953 59.555-21.543 80.449-40.723 22.074-20.277 42.035-49.488 40.391-80.746-0.14844-2.9453 0-6.9375-3.7109-7.3047-17.516-1.7305-34.285-7.5039-49.773-15.754-7.4844-4.0078-14.621-8.6172-21.426-13.676l-3.543-2.6133 9.75-9.75c1.4805-1.4805 1.4805-3.8945 0-5.375l-26.832-26.832c-1.4805-1.4805-3.875-1.4805-5.375 0l-11.262 11.262-2.6797-2.6797c-4.5586-4.5898-9.0977-9.1836-13.691-13.723z" fill="#fff" fill-rule="evenodd"/>
 </g>
</svg>
