<?xml version="1.0" encoding="UTF-8"?>
<svg width="100pt" height="100pt" version="1.1" viewBox="0 0 100 100" xmlns="http://www.w3.org/2000/svg">
 <defs>
  <clipPath id="a">
   <path d="m18.512 24h62.977v52h-62.977z"/>
  </clipPath>
 </defs>
 <path d="m100 50c0 27.613-22.387 50-50 50s-50-22.387-50-50 22.387-50 50-50 50 22.387 50 50" fill="#f47d4c"/>
 <g clip-path="url(#a)">
  <path d="m56.363 24.785c-0.28516-0.24609-0.78906-0.25391-1.0547-0.007812l-9.7773 9.7109c-0.31641 0.3125-0.34766 0.78125-0.015625 1.0898 0.95312 0.89844 1.8672 1.8242 2.7422 2.7969l0.47266 0.52344-30 30c-0.28906 0.28906-0.28906 0.76172 0 1.0508l5.2422 5.2422c0.28906 0.28906 0.75781 0.28906 1.0469 0l28.785-28.785 0.4375 0.98438c0.44531 0.99609 0.83203 2.0234 1.1602 3.0664 1.4531 4.625 1.5977 9.332 0.83594 14.094l-0.007812 0.027344c-0.09375 0.47266 0.28125 0.91016 0.76172 0.88281 0.29297-0.011719 0.58594-0.039063 0.87891-0.070313 5.5742-0.625 11.633-4.207 15.711-7.9531 4.3125-3.9609 8.2109-9.6641 7.8906-15.77-0.027344-0.57422 0-1.3555-0.72266-1.4258-3.4219-0.33984-6.6953-1.4648-9.7227-3.0781-1.4609-0.78125-2.8555-1.6836-4.1836-2.6719l-0.69141-0.51172 1.9023-1.9023c0.28906-0.28906 0.28906-0.76172 0-1.0508l-5.2422-5.2422c-0.28906-0.28906-0.75781-0.28906-1.0508 0l-2.1992 2.1992-0.52344-0.52344c-0.89062-0.89844-1.7773-1.793-2.6758-2.6797z" fill="#fff" fill-rule="evenodd"/>
 </g>
</svg>
